<svg width="64" height="64" viewBox="0 0 64 64" fill="none" xmlns="http://www.w3.org/2000/svg">
<path d="M38.9867 7.09867C39.4929 7.24029 39.9661 7.48027 40.3795 7.8049C40.7929 8.12952 41.1382 8.53243 41.3957 8.99059C41.6533 9.44876 41.8181 9.95318 41.8806 10.475C41.9431 10.9969 41.9021 11.526 41.76 12.032L29.944 54.1307C29.6576 55.1523 28.9771 56.0183 28.0521 56.5381C27.1272 57.058 26.0336 57.1891 25.012 56.9027C23.9904 56.6162 23.1244 55.9357 22.6046 55.0108C22.0847 54.0858 21.9536 52.9923 22.24 51.9707L34.056 9.86667C34.1979 9.36076 34.4381 8.88776 34.7629 8.47469C35.0876 8.06162 35.4906 7.71659 35.9487 7.45929C36.4068 7.20199 36.9112 7.03748 37.4329 6.97515C37.9546 6.91281 38.4835 6.95388 38.9894 7.09601L38.9867 7.09867ZM20.16 17.8587C20.9091 18.6087 21.3298 19.6253 21.3298 20.6853C21.3298 21.7453 20.9091 22.762 20.16 23.512L11.68 32L20.1654 40.4853C20.9154 41.2357 21.3366 42.2533 21.3364 43.3143C21.3361 44.3752 20.9144 45.3926 20.164 46.1427C19.4136 46.8927 18.396 47.3139 17.3351 47.3137C16.2741 47.3134 15.2567 46.8917 14.5067 46.1413L3.19203 34.8267C2.44296 34.0767 2.02222 33.06 2.02222 32C2.02222 30.94 2.44296 29.9233 3.19203 29.1733L14.504 17.8587C14.8755 17.487 15.3166 17.1921 15.802 16.9909C16.2875 16.7897 16.8079 16.6862 17.3334 16.6862C17.8589 16.6862 18.3792 16.7897 18.8647 16.9909C19.3502 17.1921 19.7886 17.487 20.16 17.8587ZM43.84 23.512C43.447 23.1458 43.1318 22.7042 42.9132 22.2135C42.6946 21.7229 42.577 21.1932 42.5675 20.6561C42.5581 20.119 42.6569 19.5856 42.858 19.0875C43.0592 18.5894 43.3587 18.137 43.7385 17.7571C44.1183 17.3773 44.5708 17.0779 45.0688 16.8767C45.5669 16.6755 46.1004 16.5767 46.6375 16.5862C47.1746 16.5957 47.7042 16.7132 48.1949 16.9318C48.6856 17.1505 49.1272 17.4657 49.4934 17.8587L60.808 29.1707C61.5579 29.9208 61.9792 30.938 61.9792 31.9987C61.9792 33.0593 61.5579 34.0766 60.808 34.8267L49.496 46.1413C49.1247 46.5129 48.6837 46.8077 48.1984 47.0088C47.7131 47.21 47.193 47.3136 46.6676 47.3137C46.1423 47.3138 45.6221 47.2105 45.1367 47.0095C44.6513 46.8086 44.2103 46.5141 43.8387 46.1427C43.4671 45.7713 43.1724 45.3304 42.9712 44.8451C42.7701 44.3598 42.6665 43.8396 42.6664 43.3143C42.6662 42.789 42.7696 42.2687 42.9705 41.7833C43.1714 41.298 43.466 40.8569 43.8374 40.4853L52.3227 32L43.84 23.512Z" fill="#60A4FF"/>
</svg>
