<svg width="64" height="64" viewBox="0 0 64 64" fill="none" xmlns="http://www.w3.org/2000/svg">
<path d="M57.875 2.53748L39.45 9.45623L46.0625 13.625C34.25 28.5 17.1625 37.6625 2.72498 41.15L6.81498 48.6C23.0375 43.3125 40.2125 33.775 51.275 16.925L56.3125 20.1L57.875 2.53748ZM58.8375 17.125L58.2375 23.975L51.825 19.925C51.6 20.2625 51.3625 20.5875 51.125 20.925V60.875H60.875V17.125H58.8375ZM40.0125 33.125C38.425 34.5 36.7875 35.8 35.125 37.025V60.875H44.875V33.125H40.0125ZM24.55 43.625C22.75 44.575 20.95 45.45 19.125 46.275V60.875H28.875V43.625H24.55ZM3.12498 49.125V60.875H12.875V49.125H12.165C10.3125 49.8125 8.46123 50.45 6.62123 51.0375L5.73873 51.3125L4.53873 49.125H3.12498Z" fill="#60A4FF"/>
</svg>
