<svg width="64" height="64" viewBox="0 0 64 64" fill="none" xmlns="http://www.w3.org/2000/svg">
<path d="M18.6665 26.6667V32.0001C18.6665 33.7787 19.7332 37.3334 23.9998 37.3334C28.2665 37.3334 29.3332 33.7787 29.3332 32.0001V26.6667M37.3332 26.6667L41.3332 32.0001M41.3332 32.0001L45.3332 37.3334M41.3332 32.0001L45.3332 26.6667M41.3332 32.0001L37.3332 37.3334" stroke="#0D99FF" stroke-width="3" stroke-linecap="round" stroke-linejoin="round"/>
<path d="M31.9999 58.6667C46.7275 58.6667 58.6666 46.7276 58.6666 32C58.6666 17.2724 46.7275 5.33337 31.9999 5.33337C17.2723 5.33337 5.33325 17.2724 5.33325 32C5.33325 46.7276 17.2723 58.6667 31.9999 58.6667Z" stroke="#0D99FF" stroke-width="3" stroke-linecap="round" stroke-linejoin="round"/>
</svg>
