<svg width="52" height="51" viewBox="0 0 52 51" fill="none" xmlns="http://www.w3.org/2000/svg">
<path d="M5.08006 17.4241C3.38139 17.4241 2.00806 18.8001 2.00806 20.4961V29.7121C2.00806 31.4081 3.38139 32.7841 5.08006 32.7841H46.8881C48.5841 32.7841 49.9601 31.4107 49.9601 29.7121V20.4961C49.9601 18.8001 48.5841 17.4241 46.8881 17.4241M40.7734 25.1041H32.7254" stroke="#60A4FF" stroke-width="4" stroke-linecap="round" stroke-linejoin="round"/>
<path d="M40.7734 9.71471H32.7254M5.08002 32.784C3.38135 32.784 2.00802 34.16 2.00802 35.856V45.072C2.00802 46.768 3.38135 48.144 5.08002 48.144H46.888C48.584 48.144 49.96 46.768 49.96 45.072V35.856C49.96 34.16 48.584 32.784 46.888 32.784M40.7734 40.464H32.7254M2.00002 5.21071L2.02668 14.4267C2.03202 16.1227 3.41335 17.4934 5.10935 17.4907L46.9173 17.3574C47.3207 17.3567 47.72 17.2764 48.0924 17.1211C48.4647 16.9659 48.8027 16.7387 49.0871 16.4526C49.3715 16.1665 49.5966 15.8271 49.7496 15.4538C49.9026 15.0805 49.9804 14.6808 49.9787 14.2774L49.952 5.06138C49.9513 4.65775 49.871 4.25824 49.7155 3.88575C49.5601 3.51325 49.3327 3.1751 49.0463 2.89069C48.7599 2.60628 48.4202 2.3812 48.0466 2.22836C47.673 2.07553 47.273 1.99794 46.8694 2.00004L5.06135 2.13071C3.36535 2.13604 1.99468 3.51738 2.00002 5.21071Z" stroke="#60A4FF" stroke-width="4" stroke-linecap="round" stroke-linejoin="round"/>
</svg>
